<?xml version="1.0" encoding="utf-8"?>
<svg xmlns="http://www.w3.org/2000/svg" viewBox="0 0 26.3529 28" width="26.3529px" height="28px"><path d="M13.159 0.00019456C13.091 0.00372176 13.0246 0.0210236 12.9642 0.0522393C12.9642 0.0522393 7.37545 2.81639 0.406262 3.73778C0.172116 3.76988 -0.00172373 3.96913 1.28967e-05 4.20349V13.9989C1.28967e-05 19.9996 3.31325 23.5591 6.57997 25.5386C9.84667 27.5181 13.1066 27.9947 13.1066 27.9947C13.1529 28.0018 13.2 28.0018 13.2463 27.9947C13.2463 27.9947 16.5063 27.5181 19.773 25.5386C23.0397 23.5591 26.3529 19.9996 26.3529 13.9989V4.20349C26.3549 3.96913 26.1808 3.76984 25.9467 3.73778C18.9775 2.81639 13.3888 0.0522393 13.3888 0.0522393C13.3179 0.0159091 13.2388 -0.00209812 13.159 0.00019456ZM13.1764 5.60149C17.849 5.60149 21.6452 9.36558 21.6452 13.9988C21.6452 18.632 17.849 22.4007 13.1764 22.4007C8.50384 22.4007 4.7077 18.632 4.7077 13.9988C4.7077 9.36558 8.50384 5.60149 13.1764 5.60149ZM11.2932 9.80016V12.136H8.94206C8.68217 12.135 8.47068 12.3431 8.46964 12.6008V15.4014C8.47058 15.6591 8.68217 15.8672 8.94206 15.8662H11.2932V18.202C11.2941 18.4601 11.5063 18.6683 11.7665 18.6668H14.5864C14.8462 18.6677 15.0577 18.4597 15.0588 18.202V15.8662H17.4108C17.6707 15.8671 17.8822 15.6591 17.8832 15.4014V12.6008C17.8823 12.3431 17.6707 12.135 17.4108 12.136H15.0588V9.80016C15.0578 9.54246 14.8462 9.33437 14.5864 9.33536H11.7422C11.4767 9.35881 11.293 9.55995 11.2932 9.80016Z" fill="#274760" id="object-0" transform="matrix(1, 0, 0, 1, -1.7763568394002505e-15, 0)"/></svg>