<svg xmlns="http://www.w3.org/2000/svg" width="213" height="213" viewBox="0 0 213 213" version="1.1"><path d="M 80.218 17.639 C 78.413 18.542, 75.938 20.680, 74.718 22.390 C 72.642 25.300, 72.480 26.736, 72.191 44.750 L 71.881 64 53.675 64 C 33.712 64, 30.548 64.741, 27.242 70.190 C 25.862 72.464, 25.812 73.581, 26.877 78.339 C 30.342 93.822, 43.801 101.297, 75 105.067 C 91.909 107.109, 109.170 110.118, 115.914 112.197 C 131.663 117.053, 143.490 125.165, 150.408 135.856 L 154.315 141.895 170.482 141.698 C 186.154 141.506, 186.771 141.419, 190.668 138.839 C 197.875 134.068, 198.131 132.733, 197.795 101.575 C 197.515 75.553, 197.392 73.997, 195.408 71.321 C 194.257 69.770, 191.828 67.487, 190.010 66.250 C 186.879 64.119, 185.735 64, 168.413 64 L 150.121 64 149.811 45.070 C 149.471 24.360, 149.240 23.511, 142.617 18.562 C 140.003 16.609, 138.369 16.487, 111.679 16.249 C 87.218 16.031, 83.067 16.215, 80.218 17.639" stroke="none" fill="#34c3cb" fill-rule="evenodd"/><path d="M 98.750 15.747 C 105.487 15.920, 116.513 15.920, 123.250 15.747 C 129.988 15.574, 124.475 15.432, 111 15.432 C 97.525 15.432, 92.013 15.574, 98.750 15.747 M 144 19.378 C 144 19.585, 144.787 20.373, 145.750 21.128 C 147.336 22.371, 147.371 22.336, 146.128 20.750 C 144.821 19.084, 144 18.555, 144 19.378 M 46.250 63.745 C 51.062 63.928, 58.937 63.928, 63.750 63.745 C 68.563 63.561, 64.625 63.411, 55 63.411 C 45.375 63.411, 41.438 63.561, 46.250 63.745 M 158.299 63.745 C 163.139 63.929, 170.789 63.928, 175.299 63.743 C 179.810 63.558, 175.850 63.408, 166.500 63.409 C 157.150 63.410, 153.460 63.562, 158.299 63.745 M 192 67.378 C 192 67.585, 192.787 68.373, 193.750 69.128 C 195.336 70.371, 195.371 70.336, 194.128 68.750 C 192.821 67.084, 192 66.555, 192 67.378 M 20.276 75.208 C 17.555 78.593, 13.564 88.235, 11.294 96.911 C 7.835 110.132, 7.616 130.350, 10.792 143.209 C 17.590 170.730, 33.488 188.192, 59 196.158 C 65.757 198.268, 68.332 198.496, 85 198.458 C 103.691 198.416, 112.366 197.229, 127.098 192.701 C 131.338 191.397, 133.101 191.520, 149.758 194.285 C 159.692 195.934, 168.535 197.009, 169.410 196.673 C 170.492 196.258, 171 194.801, 171 192.113 C 171 184.709, 171.773 185, 152.143 184.997 C 89.647 184.984, 50.876 170.626, 37.562 142.563 C 33.173 133.311, 33.677 132.410, 38.895 140.181 C 50.410 157.331, 67.749 167.650, 94.055 173.011 C 106.224 175.491, 119.945 176.500, 141.500 176.500 L 157.500 176.500 157.814 172.118 C 158.325 164.991, 155.286 152.194, 150.989 143.379 C 148.008 137.263, 145.477 133.807, 140.733 129.379 C 128.809 118.248, 116.267 114.049, 79.731 108.957 C 51.706 105.052, 54.509 105.574, 47.500 102.957 C 34.569 98.128, 26.769 90.608, 23.995 80.293 C 22.454 74.567, 21.662 73.484, 20.276 75.208 M 56.813 102.683 C 57.534 102.972, 58.397 102.936, 58.729 102.604 C 59.061 102.272, 58.471 102.036, 57.417 102.079 C 56.252 102.127, 56.015 102.364, 56.813 102.683 M 67.750 104.662 C 68.438 104.940, 69.563 104.940, 70.250 104.662 C 70.938 104.385, 70.375 104.158, 69 104.158 C 67.625 104.158, 67.063 104.385, 67.750 104.662 M 74.813 105.683 C 75.534 105.972, 76.397 105.936, 76.729 105.604 C 77.061 105.272, 76.471 105.036, 75.417 105.079 C 74.252 105.127, 74.015 105.364, 74.813 105.683 M 83.269 106.693 C 84.242 106.947, 85.592 106.930, 86.269 106.656 C 86.946 106.382, 86.150 106.175, 84.500 106.195 C 82.850 106.215, 82.296 106.439, 83.269 106.693 M 90.750 107.662 C 91.438 107.940, 92.563 107.940, 93.250 107.662 C 93.938 107.385, 93.375 107.158, 92 107.158 C 90.625 107.158, 90.063 107.385, 90.750 107.662 M 97.813 108.683 C 98.534 108.972, 99.397 108.936, 99.729 108.604 C 100.061 108.272, 99.471 108.036, 98.417 108.079 C 97.252 108.127, 97.015 108.364, 97.813 108.683 M 183.813 141.683 C 184.534 141.972, 185.397 141.936, 185.729 141.604 C 186.061 141.272, 185.471 141.036, 184.417 141.079 C 183.252 141.127, 183.015 141.364, 183.813 141.683" stroke="none" fill="#3bb34c" fill-rule="evenodd"/></svg>